<?xml version="1.0" encoding="UTF-8" standalone="no"?>
<!-- Created with Inkscape (http://www.inkscape.org/) -->

<svg
   xmlns:dc="http://purl.org/dc/elements/1.1/"
   xmlns:cc="http://creativecommons.org/ns#"
   xmlns:rdf="http://www.w3.org/1999/02/22-rdf-syntax-ns#"
   xmlns:svg="http://www.w3.org/2000/svg"
   xmlns="http://www.w3.org/2000/svg"
   version="1.1"
   width="708.66125"
   height="708.66125"
   id="svg3004"
   xml:space="preserve"><metadata
     id="metadata3010"><rdf:RDF><cc:Work
         rdf:about=""><dc:format>image/svg+xml</dc:format><dc:type
           rdf:resource="http://purl.org/dc/dcmitype/StillImage" /><dc:title></dc:title></cc:Work></rdf:RDF></metadata><defs
     id="defs3008"><clipPath
       id="clipPath3018"><path
         d="m 0,566.929 566.929,0 L 566.929,0 0,0 0,566.929 z"
         id="path3020" /></clipPath><clipPath
       id="clipPath3038"><path
         d="m 455.284,324.801 26.111,-11.037 10.949,26.147 -26.111,11.037 -10.949,-26.147 z m -20.162,34.643 0,-14.533 23.443,-12.274 4.5,10.746 -27.943,16.061 z m -14.578,203.85 14.578,0 0,-218.383 -14.578,7.166 0,211.217 z m 52.74,-197.422 26.111,-11.038 10.949,26.147 -26.11,11.038 -10.95,-26.147 z m -20.162,34.643 0,-14.534 23.443,-12.273 4.501,10.746 -27.944,16.061 z m -14.578,162.756 14.578,0 0,-177.29 -14.578,7.166 0,170.124 z m 52.241,-150.629 26.11,-11.038 10.949,26.147 -26.11,11.037 -10.949,-26.146 z m -20.163,34.642 0,-14.532 23.444,-12.274 4.5,10.746 -27.944,16.06 z m -14.578,116.01 14.578,0 0,-130.542 -14.578,7.166 0,123.376 z m -101.746,-212.346 -26.11,-11.037 10.949,-26.147 26.11,11.037 -10.949,26.147 z m 3.168,-7.565 4.5,-10.746 23.443,12.274 0,14.533 -27.943,-16.061 z m 42.521,8.694 -14.578,-7.166 0,218.383 14.578,0 0,-211.217 z m -63.69,39.942 -26.11,-11.038 10.95,-26.147 26.11,11.038 -10.95,26.147 z m 3.168,-7.565 4.501,-10.746 23.443,12.273 0,14.534 -27.944,-16.061 z m 42.522,8.693 -14.578,-7.166 0,177.29 14.578,0 0,-170.124 z m -63.19,45.641 -26.11,-11.037 10.949,-26.147 26.11,11.038 -10.949,26.146 z m 3.168,-7.564 4.5,-10.746 23.444,12.274 0,14.532 -27.944,-16.06 z m 42.522,8.694 -14.578,-7.166 0,130.542 14.578,0 0,-123.376 z m 53.067,123.464 -14.576,0 0,-250.778 14.576,0 0,250.778 z m 7.289,-279.936 -29.154,0 0,29.158 29.154,0 0,-29.158 z"
         id="path3040" /></clipPath></defs><g
     transform="matrix(1.25,0,0,-1.25,0,708.66125)"
     id="g3012"><g
       clip-path="url(#clipPath3018)"
       id="g3016"><path
         d="m 219.291,324.82 26.109,-11.037 10.95,26.147 -26.11,11.037 -10.949,-26.147 z m -20.162,34.643 0,-14.533 23.443,-12.274 4.5,10.746 -27.943,16.061 z m -14.578,203.849 14.578,0 0,-218.382 -14.578,7.166 0,211.216 z M 237.291,365.891 263.4,354.854 274.35,381 248.24,392.037 237.291,365.891 z m -20.162,34.642 0,-14.533 23.443,-12.273 4.5,10.746 -27.943,16.06 z m -14.578,162.756 14.578,0 0,-177.289 -14.578,7.166 0,170.123 z m 52.24,-150.629 26.109,-11.037 10.95,26.147 -26.11,11.037 -10.949,-26.147 z m -20.162,34.643 0,-14.532 23.443,-12.275 4.5,10.746 -27.943,16.061 z m -14.578,116.009 14.578,0 0,-130.541 -14.578,7.166 0,123.375 z M 118.304,350.967 92.194,339.93 l 10.95,-26.147 26.109,11.037 -10.949,26.147 z m 3.168,-7.565 4.5,-10.746 23.443,12.274 0,14.533 -27.943,-16.061 z m 42.521,8.694 -14.578,-7.166 0,218.382 14.578,0 0,-211.216 z M 100.304,392.037 74.194,381 l 10.95,-26.146 26.109,11.037 -10.949,26.146 z m 3.168,-7.564 4.5,-10.746 23.443,12.273 0,14.533 -27.943,-16.06 z m 42.521,8.693 -14.578,-7.166 0,177.289 14.578,0 0,-170.123 z m -63.189,45.641 -26.11,-11.037 10.95,-26.147 26.109,11.037 -10.949,26.147 z m 3.168,-7.565 4.5,-10.746 23.443,12.275 0,14.532 -27.943,-16.061 z m 42.521,8.695 -14.578,-7.166 0,130.541 14.578,0 0,-123.375 z m 53.068,123.462 -14.577,0 0,-250.776 14.577,0 0,250.776 z m 7.289,-279.933 -29.155,0 0,29.157 29.155,0 0,-29.157 z"
         id="path3030"
         style="fill:#3f3f3f;fill-opacity:1;fill-rule:nonzero;stroke:none" /></g></g></svg>